<?xml version="1.0" encoding="UTF-8" standalone="no"?>
<!-- Generator: Gravit.io -->
<svg xmlns="http://www.w3.org/2000/svg" xmlns:xlink="http://www.w3.org/1999/xlink" style="isolation:isolate" viewBox="0 0 16 16" width="16pt" height="16pt"><defs><clipPath id="_clipPath_uechXPq1Rv5fQjqzcRAa0AJnyEi1nQTS"><rect width="16" height="16"/></clipPath></defs><g clip-path="url(#_clipPath_uechXPq1Rv5fQjqzcRAa0AJnyEi1nQTS)"><g><path d=" M 1.298 1.077 C 0.38 1.91 -0.027 3.082 0.001 4.231 L 0.001 4.231 C 0.071 7.121 1.116 10.043 1.944 13.361 L 1.944 13.361 C 2.187 14.331 2.557 15.213 3.228 15.686 L 3.228 15.686 C 3.768 16.066 4.463 16.173 5.318 15.859 L 5.318 15.859 C 6.385 15.468 7.75 14.523 8.652 13.84 L 8.652 13.84 C 9.707 15.336 10.695 16.057 11.658 16.033 L 11.658 16.033 C 13.204 15.998 13.758 14.491 14.041 13.361 L 14.041 13.361 C 14.667 10.853 15.749 6.731 15.984 4.231 L 15.984 4.231 C 16.238 1.532 13.427 -0.682 10.392 0.281 L 10.392 0.281 C 10.096 0.374 8.783 0.471 8.639 0.471 L 8.639 0.471 C 7.296 0.471 5.809 0.269 4.861 0.08 L 4.861 0.08 C 4.592 0.027 4.321 0 4.053 0 L 4.053 0 C 3.046 0 2.073 0.374 1.298 1.077 Z  M 3.584 14.542 C 3.381 14.275 3.171 13.833 2.988 13.1 L 2.988 13.1 C 2.515 11.208 1.645 8.388 1.264 6.122 L 1.264 6.122 C 1.044 4.814 1.077 4.354 1.074 4.153 L 1.074 4.153 C 1.059 3.333 1.346 2.485 2.02 1.873 L 2.02 1.873 C 2.746 1.215 3.705 0.946 4.651 1.135 L 4.651 1.135 C 5.505 1.305 6.779 1.483 8.018 1.532 L 8.018 1.532 C 7.071 2.195 6.551 2.622 5.484 2.349 L 5.484 2.349 C 5.196 2.275 4.903 2.448 4.829 2.736 L 4.829 2.736 C 4.756 3.024 4.929 3.316 5.216 3.39 L 5.216 3.39 C 7.807 4.054 8.121 1.903 11.473 1.149 L 11.473 1.149 C 13.006 0.992 14.324 1.808 14.742 2.958 L 14.742 2.958 C 15.891 6.123 10.389 11.294 7.431 13.404 L 7.431 13.404 C 7.138 13.613 6.272 14.259 5.541 14.637 L 5.541 14.637 C 5.129 14.849 4.77 14.936 4.471 14.936 L 4.471 14.936 C 4.059 14.936 3.758 14.771 3.584 14.542 Z  M 9.498 13.171 C 11.227 11.753 13.051 9.933 14.319 8.068 L 14.319 8.068 C 13.894 9.861 13.348 11.698 12.998 13.1 L 12.998 13.1 C 12.678 14.382 12.21 14.958 11.635 14.958 L 11.635 14.958 C 11.027 14.958 10.299 14.312 9.498 13.171 Z " fill="rgb(0,160,167)"/></g></g></svg>