<?xml version="1.0" encoding="UTF-8" standalone="no"?>
<!-- Generator: Gravit.io -->
<svg xmlns="http://www.w3.org/2000/svg" xmlns:xlink="http://www.w3.org/1999/xlink" style="isolation:isolate" viewBox="0 0 133 30" width="133pt" height="30pt"><defs><clipPath id="_clipPath_yyblXDk8NpFuKawAPMpTSF5DBGBwJWT9"><rect width="133" height="30"/></clipPath></defs><g clip-path="url(#_clipPath_yyblXDk8NpFuKawAPMpTSF5DBGBwJWT9)"><g><path d=" M 37.523 9.989 L 34.253 17.752 L 30.984 9.989 C 30.783 9.52 30.246 9.302 29.794 9.503 L 29.794 9.503 C 29.307 9.688 29.089 10.241 29.291 10.694 L 29.291 10.694 L 33.398 20.484 C 33.432 20.518 33.465 20.585 33.482 20.619 L 33.482 20.619 C 33.482 20.636 33.499 20.636 33.499 20.636 L 33.499 20.636 C 33.516 20.669 33.549 20.703 33.583 20.736 L 33.583 20.736 C 33.583 20.77 33.599 20.77 33.599 20.786 L 33.599 20.786 C 33.65 20.82 33.683 20.837 33.717 20.87 L 33.717 20.87 L 33.733 20.87 C 33.784 20.904 33.851 20.954 33.884 20.971 L 33.884 20.971 L 33.901 20.971 C 33.901 20.971 33.918 20.971 33.918 20.987 L 33.918 20.987 C 33.951 20.987 34.018 21.004 34.052 21.021 L 34.052 21.021 L 34.086 21.021 C 34.136 21.038 34.203 21.038 34.253 21.038 L 34.253 21.038 C 34.304 21.038 34.354 21.038 34.421 21.021 L 34.421 21.021 L 34.454 21.021 C 34.505 21.004 34.538 20.987 34.589 20.987 L 34.589 20.987 C 34.605 20.971 34.605 20.971 34.622 20.971 L 34.622 20.971 C 34.672 20.954 34.723 20.904 34.756 20.887 L 34.756 20.887 L 34.79 20.87 C 34.823 20.837 34.857 20.82 34.89 20.786 L 34.89 20.786 C 34.907 20.77 34.907 20.77 34.924 20.736 L 34.924 20.736 C 34.94 20.703 34.991 20.669 35.008 20.636 L 35.008 20.636 C 35.024 20.636 35.024 20.636 35.024 20.619 L 35.024 20.619 C 35.058 20.585 35.075 20.518 35.091 20.484 L 35.091 20.484 L 39.233 10.694 C 39.417 10.241 39.199 9.688 38.73 9.503 L 38.73 9.503 C 38.615 9.452 38.494 9.428 38.374 9.428 L 38.374 9.428 C 38.02 9.428 37.673 9.639 37.523 9.989 Z " fill="rgb(0,160,167)"/><path d=" M 40.625 10.207 L 40.625 10.56 C 40.625 11.062 41.027 11.482 41.53 11.482 L 41.53 11.482 C 42.05 11.482 42.436 11.062 42.436 10.56 L 42.436 10.56 L 42.436 10.207 C 42.436 9.704 42.05 9.302 41.53 9.302 L 41.53 9.302 C 41.027 9.302 40.625 9.704 40.625 10.207 Z  M 40.625 13.594 L 40.625 20.132 C 40.625 20.636 41.027 21.038 41.53 21.038 L 41.53 21.038 C 42.05 21.038 42.436 20.636 42.436 20.132 L 42.436 20.132 L 42.436 13.594 C 42.436 13.057 42.05 12.672 41.53 12.672 L 41.53 12.672 C 41.027 12.672 40.625 13.057 40.625 13.594 Z " fill="rgb(0,160,167)"/><path d=" M 49.31 13.393 C 48.672 12.94 47.918 12.655 47.08 12.655 L 47.08 12.655 C 45.939 12.655 44.95 13.141 44.229 13.912 L 44.229 13.912 C 43.509 14.667 43.09 15.706 43.09 16.863 L 43.09 16.863 C 43.09 18.003 43.509 19.043 44.229 19.814 L 44.229 19.814 C 44.95 20.569 45.939 21.038 47.08 21.038 L 47.08 21.038 C 47.918 21.038 48.672 20.77 49.31 20.317 L 49.31 20.317 C 49.41 20.719 49.745 21.038 50.181 21.038 L 50.181 21.038 C 50.667 21.038 51.07 20.636 51.07 20.149 L 51.07 20.149 L 51.07 16.863 L 51.07 13.56 C 51.07 13.057 50.667 12.655 50.181 12.655 L 50.181 12.655 C 49.745 12.655 49.41 12.974 49.31 13.393 Z  M 45.52 18.59 C 45.118 18.154 44.883 17.55 44.883 16.863 L 44.883 16.863 C 44.883 16.159 45.118 15.555 45.52 15.136 L 45.52 15.136 C 45.906 14.684 46.476 14.449 47.08 14.449 L 47.08 14.449 C 47.666 14.449 48.237 14.684 48.639 15.136 L 48.639 15.136 C 49.041 15.555 49.293 16.159 49.293 16.863 L 49.293 16.863 C 49.293 17.55 49.041 18.154 48.639 18.59 L 48.639 18.59 C 48.237 19.009 47.666 19.244 47.08 19.244 L 47.08 19.244 C 46.476 19.244 45.906 19.009 45.52 18.59 Z " fill="rgb(0,160,167)"/><path d=" M 54.826 13.343 C 54.759 12.974 54.373 12.655 53.903 12.655 L 53.903 12.655 C 53.417 12.655 53.015 13.057 53.015 13.544 L 53.015 13.544 L 53.015 16.863 L 53.015 16.88 L 53.015 23.285 C 53.015 23.754 53.417 24.19 53.903 24.19 L 53.903 24.19 C 54.44 24.19 54.859 23.754 54.859 23.285 L 54.859 23.285 L 54.859 20.334 C 55.463 20.77 56.268 21.021 57.106 21.021 L 57.106 21.021 C 59.336 21.021 61.163 19.16 61.163 16.863 L 61.163 16.863 C 61.163 14.566 59.336 12.655 57.106 12.655 L 57.106 12.655 C 56.251 12.655 55.446 12.94 54.826 13.343 Z  M 55.513 18.54 C 55.077 18.154 54.859 17.517 54.859 16.863 L 54.859 16.863 C 54.859 16.209 55.077 15.606 55.513 15.17 L 55.513 15.17 C 55.932 14.717 56.486 14.483 57.106 14.483 L 57.106 14.483 C 57.676 14.483 58.246 14.717 58.682 15.17 L 58.682 15.17 C 59.068 15.606 59.336 16.209 59.336 16.863 L 59.336 16.863 C 59.336 17.517 59.068 18.154 58.682 18.54 L 58.682 18.54 C 58.246 19.009 57.676 19.244 57.106 19.244 L 57.106 19.244 C 56.486 19.244 55.932 19.009 55.513 18.54 Z " fill="rgb(0,160,167)"/><path d=" M 68.071 13.393 C 67.434 12.94 66.68 12.655 65.841 12.655 L 65.841 12.655 C 64.701 12.655 63.712 13.141 62.991 13.912 L 62.991 13.912 C 62.27 14.667 61.851 15.706 61.851 16.863 L 61.851 16.863 C 61.851 18.003 62.27 19.043 62.991 19.814 L 62.991 19.814 C 63.712 20.569 64.701 21.038 65.841 21.038 L 65.841 21.038 C 66.68 21.038 67.434 20.77 68.071 20.317 L 68.071 20.317 C 68.171 20.719 68.507 21.038 68.943 21.038 L 68.943 21.038 C 69.429 21.038 69.831 20.636 69.831 20.149 L 69.831 20.149 L 69.831 16.863 L 69.831 13.56 C 69.831 13.057 69.429 12.655 68.943 12.655 L 68.943 12.655 C 68.507 12.655 68.171 12.974 68.071 13.393 Z  M 64.282 18.59 C 63.879 18.154 63.645 17.55 63.645 16.863 L 63.645 16.863 C 63.645 16.159 63.879 15.555 64.282 15.136 L 64.282 15.136 C 64.667 14.684 65.238 14.449 65.841 14.449 L 65.841 14.449 C 66.428 14.449 66.998 14.684 67.4 15.136 L 67.4 15.136 C 67.802 15.555 68.054 16.159 68.054 16.863 L 68.054 16.863 C 68.054 17.55 67.802 18.154 67.4 18.59 L 67.4 18.59 C 66.998 19.009 66.428 19.244 65.841 19.244 L 65.841 19.244 C 65.238 19.244 64.667 19.009 64.282 18.59 Z " fill="rgb(0,160,167)"/><path d=" M 73.939 13.326 C 73.822 13.409 73.688 13.544 73.587 13.661 L 73.587 13.661 L 73.587 13.544 C 73.587 13.057 73.168 12.672 72.665 12.672 L 72.665 12.672 C 72.179 12.672 71.776 13.057 71.776 13.544 L 71.776 13.544 L 71.776 20.149 C 71.776 20.636 72.179 21.038 72.665 21.038 L 72.665 21.038 C 73.168 21.038 73.587 20.636 73.587 20.149 L 73.587 20.149 L 73.587 16.964 C 73.671 16.729 73.872 16.092 74.275 15.555 L 74.275 15.555 C 74.476 15.237 74.727 14.952 75.046 14.751 L 75.046 14.751 C 75.331 14.533 75.666 14.432 76.052 14.432 L 76.052 14.432 C 76.555 14.432 76.94 14.013 76.94 13.544 L 76.94 13.544 C 76.94 13.057 76.555 12.672 76.052 12.672 L 76.052 12.672 C 76.03 12.671 76.007 12.671 75.985 12.671 L 75.985 12.671 C 75.175 12.671 74.478 12.967 73.939 13.326 Z " fill="rgb(0,160,167)"/><path d=" M 77.795 10.224 L 77.795 20.116 C 77.795 20.619 78.198 21.038 78.718 21.038 L 78.718 21.038 C 79.237 21.038 79.657 20.619 79.657 20.116 L 79.657 20.116 L 79.657 18.64 L 80.579 17.718 L 83.044 20.703 C 83.211 20.92 83.479 21.038 83.748 21.038 L 83.748 21.038 C 83.949 21.038 84.167 20.971 84.334 20.82 L 84.334 20.82 C 84.737 20.501 84.787 19.914 84.468 19.512 L 84.468 19.512 L 81.886 16.411 L 84.401 13.896 C 84.77 13.544 84.77 12.957 84.401 12.588 L 84.401 12.588 C 84.049 12.236 83.446 12.236 83.094 12.588 L 83.094 12.588 L 79.657 16.025 L 79.657 10.224 C 79.657 9.721 79.237 9.302 78.718 9.302 L 78.718 9.302 C 78.198 9.302 77.795 9.721 77.795 10.224 Z " fill="rgb(0,160,167)"/><path d=" M 90.639 9.302 C 90.119 9.302 89.716 9.704 89.716 10.224 L 89.716 10.224 L 89.716 20.116 C 89.716 20.619 90.119 21.038 90.639 21.038 L 90.639 21.038 L 92.617 21.038 C 95.853 21.038 98.468 18.405 98.468 15.153 L 98.468 15.153 C 98.468 11.934 95.853 9.302 92.617 9.302 L 92.617 9.302 L 90.639 9.302 Z  M 91.578 11.163 L 92.617 11.163 C 94.83 11.163 96.607 12.957 96.607 15.153 L 96.607 15.153 C 96.607 16.268 96.163 17.27 95.442 17.995 C 94.721 18.72 93.724 19.168 92.617 19.176 L 92.617 19.176 L 91.578 19.176 L 91.578 11.163 Z " fill="rgb(0,160,167)"/><path d=" M 99.659 16.847 C 99.676 19.126 101.453 21.021 103.75 21.038 L 103.75 21.038 C 104.94 21.038 105.93 20.686 106.751 19.931 L 106.751 19.931 C 107.137 19.579 106.969 19.076 106.751 18.841 L 106.751 18.841 C 106.533 18.573 105.846 18.523 105.494 18.892 L 105.494 18.892 C 105.074 19.21 104.354 19.362 103.75 19.311 L 103.75 19.311 C 103.163 19.261 102.492 18.959 102.141 18.557 L 102.141 18.557 C 101.839 18.271 101.654 17.835 101.571 17.45 L 101.571 17.45 L 106.902 17.45 C 107.372 17.45 107.723 17.182 107.774 16.78 L 107.774 16.78 C 107.79 16.746 107.79 16.662 107.79 16.628 L 107.79 16.628 L 107.79 16.545 C 107.656 14.282 105.93 12.655 103.75 12.655 L 103.75 12.655 C 101.453 12.655 99.676 14.566 99.659 16.847 Z  M 103.75 14.248 C 105.208 14.365 106.064 15.354 106.232 16.025 L 106.232 16.025 L 101.486 16.025 C 101.621 15.338 102.325 14.315 103.75 14.248 Z " fill="rgb(0,160,167)"/><path d=" M 110.825 13.175 C 110.675 12.856 110.356 12.655 110.004 12.655 L 110.004 12.655 C 109.501 12.655 109.115 13.057 109.115 13.544 L 109.115 13.544 L 109.115 16.142 L 109.115 20.149 C 109.115 20.636 109.501 21.038 110.004 21.038 L 110.004 21.038 C 110.44 21.038 110.809 20.719 110.893 20.317 L 110.893 20.317 C 110.926 20.25 110.926 20.2 110.926 20.149 L 110.926 20.149 L 110.926 16.142 C 110.926 15.203 111.664 14.449 112.603 14.449 L 112.603 14.449 C 113.559 14.449 114.346 15.203 114.346 16.142 L 114.346 16.142 L 114.346 20.149 C 114.346 20.636 114.766 21.038 115.235 21.038 L 115.235 21.038 C 115.721 21.038 116.107 20.636 116.107 20.149 L 116.107 20.149 L 116.107 16.142 C 116.107 14.248 114.547 12.655 112.603 12.655 L 112.603 12.655 C 111.949 12.655 111.328 12.856 110.825 13.175 Z " fill="rgb(0,160,167)"/><path d=" M 118.024 10.224 L 118.024 12.655 L 117.537 12.655 C 117.017 12.655 116.615 13.057 116.615 13.577 L 116.615 13.577 C 116.615 14.08 117.017 14.499 117.537 14.499 L 117.537 14.499 L 118.024 14.499 L 118.024 19.176 C 118.024 20.2 118.862 21.038 119.884 21.038 L 119.884 21.038 C 120.404 21.038 120.807 20.636 120.807 20.116 L 120.807 20.116 C 120.807 19.596 120.404 19.176 119.884 19.176 L 119.884 19.176 L 119.884 14.499 L 120.303 14.499 C 120.807 14.499 121.242 14.08 121.242 13.577 L 121.242 13.577 C 121.242 13.057 120.807 12.655 120.303 12.655 L 120.303 12.655 L 119.884 12.655 L 119.884 10.224 C 119.884 9.704 119.482 9.302 118.962 9.302 L 118.962 9.302 C 118.442 9.302 118.024 9.704 118.024 10.224 Z " fill="rgb(0,160,167)"/><path d=" M 127.664 13.393 C 127.027 12.94 126.272 12.655 125.434 12.655 L 125.434 12.655 C 124.294 12.655 123.305 13.141 122.584 13.912 L 122.584 13.912 C 121.863 14.667 121.443 15.706 121.443 16.863 L 121.443 16.863 C 121.443 18.003 121.863 19.043 122.584 19.814 L 122.584 19.814 C 123.305 20.569 124.294 21.038 125.434 21.038 L 125.434 21.038 C 126.272 21.038 127.027 20.77 127.664 20.317 L 127.664 20.317 C 127.765 20.719 128.1 21.038 128.536 21.038 L 128.536 21.038 C 129.022 21.038 129.424 20.636 129.424 20.149 L 129.424 20.149 L 129.424 16.863 L 129.424 13.56 C 129.424 13.057 129.022 12.655 128.536 12.655 L 128.536 12.655 C 128.1 12.655 127.765 12.974 127.664 13.393 Z  M 123.875 18.59 C 123.473 18.154 123.238 17.55 123.238 16.863 L 123.238 16.863 C 123.238 16.159 123.473 15.555 123.875 15.136 L 123.875 15.136 C 124.26 14.684 124.83 14.449 125.434 14.449 L 125.434 14.449 C 126.021 14.449 126.591 14.684 126.993 15.136 L 126.993 15.136 C 127.396 15.555 127.647 16.159 127.647 16.863 L 127.647 16.863 C 127.647 17.55 127.396 18.154 126.993 18.59 L 126.993 18.59 C 126.591 19.009 126.021 19.244 125.434 19.244 L 125.434 19.244 C 124.83 19.244 124.26 19.009 123.875 18.59 Z " fill="rgb(0,160,167)"/><path d=" M 131.139 10.224 L 131.139 20.116 C 131.139 20.619 131.558 21.038 132.061 21.038 L 132.061 21.038 C 132.581 21.038 133 20.619 133 20.116 L 133 20.116 L 133 10.224 C 133 9.721 132.581 9.302 132.061 9.302 L 132.061 9.302 C 131.558 9.302 131.139 9.721 131.139 10.224 Z " fill="rgb(0,160,167)"/><path d=" M 1.652 6.159 C 0.484 7.219 -0.034 8.712 0.002 10.174 L 0.002 10.174 C 0.091 13.853 1.421 17.574 2.475 21.797 L 2.475 21.797 C 2.784 23.032 3.255 24.155 4.11 24.757 L 4.11 24.757 C 4.797 25.241 5.682 25.377 6.769 24.978 L 6.769 24.978 C 8.128 24.479 9.866 23.277 11.014 22.406 L 11.014 22.406 C 12.358 24.312 13.615 25.229 14.841 25.199 L 14.841 25.199 C 16.81 25.155 17.515 23.236 17.875 21.797 L 17.875 21.797 C 18.672 18.605 20.05 13.356 20.348 10.175 L 20.348 10.175 C 20.671 6.738 17.093 3.92 13.229 5.145 L 13.229 5.145 C 12.853 5.265 11.181 5.387 10.998 5.387 L 10.998 5.387 C 9.288 5.387 7.395 5.131 6.188 4.89 L 6.188 4.89 C 5.845 4.822 5.501 4.788 5.16 4.788 L 5.16 4.788 C 3.877 4.788 2.639 5.265 1.652 6.159 Z  M 4.563 23.301 C 4.304 22.96 4.036 22.398 3.803 21.465 L 3.803 21.465 C 3.202 19.056 2.094 15.466 1.609 12.582 L 1.609 12.582 C 1.329 10.916 1.372 10.331 1.367 10.075 L 1.367 10.075 C 1.348 9.031 1.714 7.951 2.572 7.173 L 2.572 7.173 C 3.496 6.335 4.717 5.992 5.92 6.233 L 5.92 6.233 C 7.009 6.45 8.63 6.676 10.208 6.739 L 10.208 6.739 C 9.001 7.582 8.339 8.127 6.981 7.778 L 6.981 7.778 C 6.614 7.684 6.242 7.905 6.148 8.271 L 6.148 8.271 C 6.054 8.637 6.274 9.01 6.641 9.104 L 6.641 9.104 C 9.939 9.949 10.338 7.211 14.605 6.251 L 14.605 6.251 C 16.558 6.05 18.235 7.09 18.767 8.554 L 18.767 8.554 C 20.23 12.583 13.225 19.165 9.46 21.852 L 9.46 21.852 C 9.087 22.118 7.984 22.941 7.054 23.421 L 7.054 23.421 C 6.529 23.692 6.073 23.803 5.692 23.803 L 5.692 23.803 C 5.167 23.803 4.785 23.593 4.563 23.301 Z  M 12.092 21.556 C 14.293 19.75 16.615 17.433 18.228 15.059 L 18.228 15.059 C 17.688 17.342 16.992 19.68 16.547 21.465 L 16.547 21.465 C 16.139 23.097 15.544 23.831 14.812 23.831 L 14.812 23.831 C 14.038 23.831 13.111 23.008 12.092 21.556 Z " fill="rgb(0,160,167)"/></g></g></svg>